<?xml version="1.0" encoding="UTF-8"?>
<svg width="146px" height="162px" viewBox="0 0 146 162" version="1.1" xmlns="http://www.w3.org/2000/svg" xmlns:xlink="http://www.w3.org/1999/xlink">
    <title>kite-dark</title>
    <defs>
        <path d="M23.6629882,24.5265449 L71.9882372,1.42194023 C73.4470783,0.724459141 75.1967713,1.28315718 75.9814359,2.69701668 L101.193219,48.1252385 C101.858794,49.3245155 101.644511,50.8202438 100.668992,51.7844114 L43.7053012,108.085261 C42.5040105,109.272574 40.5676654,109.261242 39.3803532,108.059951 C38.9677863,107.642527 38.6840435,107.115206 38.5629899,106.540923 L21.9896485,27.9164559 C21.698611,26.5357645 22.3899712,25.1351823 23.6629882,24.5265449 Z" id="path-1"></path>
    </defs>
    <g id="Page-1" stroke="none" stroke-width="1" fill="none" fill-rule="evenodd">
        <g id="apple-touch-icon-copy-5" transform="translate(-22, -16)">
            <g id="kite-dark" transform="translate(22.8438, 20.5045)">
                <g id="1" transform="translate(71.8573, 67.5869) rotate(12) translate(-71.8573, -67.5869)translate(10.3005, 11.5744)">
                    <g id="Group-3" transform="translate(-0, 0)">
                        <g id="path2985" fill-rule="nonzero">
                            <use fill="#FFB319" xlink:href="#path-1"></use>
                            <path stroke="#FFFFFF" stroke-width="4.80582524" d="M70.9517601,-0.745939913 C72.2542968,-1.36869088 73.6866781,-1.4306476 74.9685736,-1.02132294 C76.250469,-0.611998276 77.3818786,0.268607767 78.0824721,1.53098232 L103.294255,46.9592042 C103.888519,48.0299872 104.089988,49.2331146 103.925142,50.3837621 C103.760296,51.5344097 103.229134,52.6325775 102.358135,53.4934414 L45.3944446,109.794291 C44.3218637,110.854392 42.9211334,111.379383 41.5235233,111.371204 C40.1259132,111.363025 38.7314233,110.821676 37.6713232,109.749095 C36.9345967,109.003694 36.4279131,108.062049 36.2117459,107.036545 L19.6384045,28.4120774 C19.3785495,27.1793171 19.557265,25.9376771 20.0850999,24.8683706 C20.6129347,23.799064 21.4898888,22.902091 22.6265111,22.3586647 Z"></path>
                            <use stroke="#FFB319" stroke-width="0.35" xlink:href="#path-1"></use>
                        </g>
                        <path d="M11.2742185,18.7464759 L7.7287926,12.0100626 C7.50403591,11.5830183 6.97564681,11.4190318 6.54860251,11.6437885 C6.50660954,11.6658897 6.46648677,11.6913751 6.42863228,11.7199917 L3.95772012,13.5879103 C3.57276167,13.8789247 3.49660499,14.426909 3.78761941,14.8118675 C3.8303808,14.8684329 3.87986873,14.9195828 3.93499133,14.9641887 L9.95132943,19.8326833 C10.3264686,20.1362505 10.8766687,20.07823 11.1802359,19.7030909 C11.3998945,19.4316434 11.4368505,19.0554814 11.2742185,18.7464759 Z" id="path17949" fill="#FFFFFF" fill-rule="nonzero" transform="translate(8.159, 16.8013) rotate(-12) translate(-8.159, -16.8013)"></path>
                        <path d="M11.5825164,24.8860825 L3.58685937,24.7060566 C3.10440274,24.6951938 2.70448838,25.0774962 2.69362564,25.5599529 C2.69227458,25.6199589 2.69710989,25.6799445 2.70805497,25.7389595 L3.29505681,28.904021 C3.38305669,29.3785086 3.83904284,29.6918187 4.31353038,29.6038188 C4.370749,29.5932069 4.42676439,29.5769054 4.48074213,29.5551571 L11.8893973,26.5701214 C12.3370097,26.389773 12.55367,25.8807102 12.3733216,25.4330978 C12.2427678,25.1090722 11.9317657,24.893946 11.5825164,24.8860825 Z" id="path17953" fill="#FFFFFF" fill-rule="nonzero" transform="translate(9.1718, 27.3181) rotate(-12) translate(-9.1718, -27.3181)"></path>
                        <path d="M112.970459,49.1712103 L121.461294,47.8336847 C121.937995,47.758592 122.385311,48.0841596 122.460404,48.5608602 C122.469167,48.6164859 122.472531,48.6728284 122.470451,48.7291015 L122.342666,52.1863944 C122.324842,52.6686441 121.919452,53.045135 121.437202,53.0273106 C121.375644,53.0250354 121.3145,53.016257 121.254788,53.001122 L112.891738,50.8813548 C112.423952,50.7627858 112.140856,50.2874512 112.259425,49.8196651 C112.345338,49.4807146 112.625049,49.2256212 112.970459,49.1712103 Z" id="path17955" fill="#FFFFFF" fill-rule="nonzero" transform="translate(115.6353, 50.4676) rotate(-12) translate(-115.6353, -50.4676)"></path>
                        <path d="M112.947327,55.9295159 L118.309837,62.9425853 C118.602965,63.3259368 118.529824,63.8743318 118.146473,64.1674597 C118.0976,64.2048295 118.044918,64.2369334 117.989303,64.263237 L114.742113,65.7990101 C114.305865,66.0053355 113.784956,65.8189465 113.578631,65.3826986 C113.553803,65.3302032 113.53427,65.2753635 113.520322,65.2189929 L111.405002,56.6701505 C111.289088,56.2016994 111.574877,55.7279784 112.043328,55.6120651 C112.380986,55.5285151 112.736041,55.6531972 112.947327,55.9295159 Z" id="path17957" fill="#FFFFFF" fill-rule="nonzero" transform="translate(114.6813, 59.4244) rotate(-12) translate(-114.6813, -59.4244)"></path>
                        <path d="M9.58913022,22.3458964 L2.84875351,18.8296527 C2.68026044,18.7417551 2.47427306,18.7728599 2.33924657,18.90659 L0.973980198,20.2587487 C0.802541798,20.4285412 0.80120749,20.7051634 0.970999939,20.8766018 C1.0255631,20.9316939 1.09380528,20.9712723 1.16872012,20.9912734 L9.27436321,23.1553585 C9.50748702,23.2175991 9.74692716,23.0790708 9.80916772,22.845947 C9.8619351,22.6483053 9.77049929,22.440511 9.58913022,22.3458964 Z" id="path17980" fill="#FFFFFF" fill-rule="nonzero" transform="translate(6.7651, 21.4291) rotate(-12) translate(-6.7651, -21.4291)"></path>
                        <path d="M113.206827,52.3356217 L121.986014,56.2389381 C122.170449,56.3209399 122.274703,56.5186114 122.238215,56.7171292 L121.763045,59.3024024 C121.719427,59.5397167 121.491686,59.6967385 121.254372,59.6531204 C121.185069,59.6403825 121.119875,59.6110709 121.064351,59.5676857 L112.760334,53.079096 C112.570204,52.9305323 112.536508,52.6559667 112.685072,52.4658367 C112.808512,52.3078591 113.023632,52.2541714 113.206827,52.3356217 Z" id="path17982" fill="#FFFFFF" fill-rule="nonzero" transform="translate(116.1318, 55.4526) rotate(-12) translate(-116.1318, -55.4526)"></path>
                        <line x1="40.4037209" y1="109.918221" x2="74.2108712" y2="-5.53291763e-13" id="path17978" stroke="#FFFFFF" stroke-width="3.69194112"></line>
                        <polyline id="path17976" stroke="#FFFFFF" stroke-width="3.25504791" points="20.8875912 26.0445226 60.770302 44.7313038 102.58662 50.9474352"></polyline>
                    </g>
                </g>
                <path d="M42.1909695,117.052592 C41.3771756,119.609185 41.6946959,120.507926 39.2137426,121.528813 C37.4917058,122.237391 35.8640035,122.557492 33.9980409,122.501718 C32.0477118,122.443422 28.9871028,121.016343 27.0468392,120.864137 C23.2500067,120.566546 18.8322268,121.159129 16.7502682,124.348014 C14.9763015,127.065102 15.6797425,130.929537 17.8779958,133.316651 C20.0760126,135.703765 23.4506859,136.746635 26.6955914,136.730089 C27.3666496,136.72678 29.6438508,135.568088 30.0144811,135.050907 C31.8246126,132.524334 32.6727129,129.154152 31.6099875,126.233312 C29.9222962,121.59547 23.7856241,119.706863 19.1988387,121.528813 C14.6120533,123.351 11.5973735,127.921712 10.2531298,132.670648 C9.20718671,136.365841 9.23909684,140.898025 12.1523733,143.400251 C14.4236437,145.351001 18.1083997,145.10344 20.2680897,146.873887 C20.6216564,147.16373 20.9035013,147.532389 21.1644034,147.947318 C21.8361707,149.015716 22.0437047,150.309849 22.1096523,151.570181 C22.1219129,151.80469 22.115256,152.05177 22.0896816,152.311422" id="Stroke-1" stroke="#FFFFFF" stroke-width="4" stroke-linecap="round" stroke-linejoin="round" transform="translate(25.9086, 134.682) rotate(-8) translate(-25.9086, -134.682)"></path>
            </g>
        </g>
    </g>
</svg>